<?xml version="1.0" encoding="utf-8"?>
<!-- Generator: Adobe Illustrator 18.1.1, SVG Export Plug-In . SVG Version: 6.00 Build 0)  -->
<!DOCTYPE svg PUBLIC "-//W3C//DTD SVG 1.1//EN" "http://www.w3.org/Graphics/SVG/1.1/DTD/svg11.dtd">
<svg version="1.1" id="Layer_1" xmlns="http://www.w3.org/2000/svg" xmlns:xlink="http://www.w3.org/1999/xlink" x="0px" y="0px"
	 width="600px" height="600px" viewBox="0 0 600 600" enable-background="new 0 0 600 600" xml:space="preserve">
<path fill="#EECE8A" d="M162.2,296.6c5.9,0.2-103.4-29.1-103.4-29.1L19.2,291l99.9,34.4l11.8-14.8l31.3,4.7
	C162.2,315.4,151,296.2,162.2,296.6z"/>
<ellipse fill="#EAB53D" stroke="#231F20" stroke-linecap="round" stroke-linejoin="round" stroke-miterlimit="10" cx="330.2" cy="302.4" rx="233.4" ry="117.8"/>
<path fill="#EECE8A" d="M262.6,89.6c-1.2,1.8-11.8,20.8-11.8,20.8l21.9,26.5l4.7,18.5l8.9,13.4c0,0,23-6.9,25.4,10.7s0,0,0,0
	s14.2-10.2,22.5-5.7c8.3,4.5,0,0,0,0s49,9.2,25.7,27.5c-23.3,18.3,0,0,0,0l27.9-3.4L301,122.1L262.6,89.6z"/>
<path fill="#DCBC66" d="M89.2,163.2c0,2.8-3,23.5-3,23.5l56.7,63.6l3.5-6.9l53.8,56.1c0,0,13.6-5.9,24.2,0l7.7,4.1l6.5-5.9
	L132.9,189.6l-29.5-35.5L89.2,163.2z"/>
<path fill="#DCBC66" d="M72,203c0,2.8-3,23.5-3,23.5l56.7,63.6l3.5-6.9l53.8,56.1c0,0,13.6-5.9,24.2,0l7.7,4.1l6.5-5.9L115.7,229.4
	l-29.5-35.5L72,203z"/>
<path fill="#DCBC66" d="M192.9,142.8c-7.7-1.5-27.2-2.7-27.2-2.7l-11.8,11.8l9.5,21.9l10,3.5l8.3-14.7l50.8,42.5l4.7-8.9l31.9,5.1
	l-12.4-9.2L203,135.9l-6.5,6.9H192.9z"/>
<path fill="#DCBC66" d="M170.1,172.8c-7.7-1.5-27.2-2.7-27.2-2.7l-11.8,11.8l9.5,21.9l10,3.5l8.3-14.7l50.8,42.5l4.7-8.9l31.9,5.1
	L234,222l-53.8-56.1l-6.5,6.9H170.1z"/>
<path fill="#EECE8A" d="M150.9,189.1c-7.7-1.5-27.2-2.7-27.2-2.7l-11.8,11.8l9.5,21.9l10,3.5l8.3-14.7l50.8,42.5l4.7-8.9l31.9,5.1
	l-12.4-9.2L161,182.2l-6.5,6.9H150.9z"/>
<polygon fill="#EECE8A" points="94.4,270.5 53.7,229.8 53.7,216.8 41.3,209.1 41.3,195.7 46,187.3 96.8,229.8 108.6,252.2 "/>
<path fill="#DCBC66" d="M196.8,324.4c5.9,0.2-103.4-29.1-103.4-29.1l-39.6,23.5l99.9,34.4l11.8-14.8l31.3,4.7
	C196.8,343.1,185.5,323.9,196.8,324.4z"/>
<path fill="#EB7825" d="M212.3,223.8c0,0-50.5-16.5-41.7,29.6c0,0-75.2-7.4-55.9,27l-0.2,5.6c0,0-11.2,4.6,0,18.8
	c0,0,16.8,17.6,34.9,10.5c32.5-12.8,72.7-5.7,59.1-37.6c0,0,71,11.1,44.9-20.7c0,0,6.6-24-35.5-27.2L212.3,223.8"/>
<path fill="#DCA06C" d="M165.8,329.1c-0.4,0.2-1.2,0.6-2.2,1.3c-6.5,4.2-23.4,16.6-22.2,17.5c1.3,1.1,17.9,12.2,17.9,12.2l24.2-21.6
	l-19.3-9.4"/>
<path fill="none" stroke="#231F20" stroke-linecap="round" stroke-linejoin="round" stroke-miterlimit="10" d="M30.6,397.6"/>
<path fill="#EEE7A1" d="M205.8,277.4c0,0-35.5,4.8-29.5,16.9c0,0,16.5,31.6,29.5,23.6c0,0,34.3,8.9,36.6-13.7
	c0,0,18.9-21.4,7.1-26.7C249.5,277.4,233.4,268.1,205.8,277.4z"/>
<path fill="#CFAB5C" d="M418.8,56.2l-16.5,41.4c0,0-18.9,75.6-18.9,80.4c0,4.7,17.7,5,17.7,5l49.6-107.8V56.2H418.8z"/>
<polygon fill="#DCBC66" points="389.7,86.6 408.6,99.6 389.7,180 359.6,151.6 "/>
<polygon fill="#DCBC66" points="291.6,105.7 327.1,117.5 398,184.9 392.4,215.6 302.3,138.2 "/>
<path fill="#EB7825" d="M346.2,169.5c-3.6,1-52,10.6-56.7,24.8c0,0-29.5-4.7,0,26c0,0-8.3,35.5,44.3,20.1c0,0,53.8,21.3,55-22.5
	c0,0,18.9-39-11.8-39C376.9,179,371.9,162.6,346.2,169.5z"/>
<path fill="#DCBC66" d="M434.2,178c0-3.5,33.1-79.2,33.1-79.2l-10.6-14.2l-18.5,5l-43,93.3h22.5L434.2,178z"/>
<path fill="#DCBC66" d="M512.6,96.5c-10.6,9.5-15.4,17.5-15.4,17.5l-23.6,3.3l-56.7,58.4l23.6,15.4c0,0,54.4-34.3,57.9-39.6
	c3.5-5.3,14.2-29,14.2-29V96.5z"/>
<path fill="#DCBC66" d="M475.5,154.8l-52.1,34.6c0,0,34.4,8,17.2,25.3l54.9-52.4l-14.2-1.2L475.5,154.8z"/>
<polygon fill="#C6A255" points="514.2,133.3 468.1,188.9 413.3,241.3 456.3,231.4 504.8,190.2 547.3,154 540.2,133.3 "/>
<polygon fill="#EECE8A" points="502.4,170.5 456.3,226.1 401.4,278.5 444.5,268.6 492.9,227.4 535.5,191.2 528.4,170.5 "/>
<polygon fill="#C6A255" points="514.2,191.6 468.1,247.1 413.3,299.6 456.3,289.7 504.8,248.5 547.3,212.3 540.2,191.6 "/>
<polygon fill="#DCBC66" points="574.2,138.8 553,128.3 504.5,169.5 504.5,206.7 "/>
<path fill="#DCBC66" d="M570.7,183.1c-3,3-69.7,75-69.7,75l17.7,19.5l48.5-75.6l9.5,8.3L570.7,183.1z"/>
<path fill="#EB7825" d="M354.4,245.6c0,0-49,3.7-43.7,25c5.3,21.3-3,0-3,0s-29.8,18.6-4.6,38.2c1.4,1.1,2.9,2.1,4.6,3.2
	c33.1,20.7-1.7-1.1-1.7-1.1s-31.2,40.4-3.5,56.9c0.9,0.5,1.8,1,2.8,1.5c32.5,15.4,45.9,26,61.5,0c1.8-3,39.6,0,21.3-48.5
	c0,0,14.2-29.2-5.3-34.7c0,0,41.4-3.7,14.8-20.8c-26.6-17.1-3.1-0.6-3.1-0.6S405.7,247.7,354.4,245.6z"/>
<polygon fill="#EECE8A" points="566.6,228.5 574.8,241.5 550.6,289.4 513.7,308.9 503.9,289.4 552.4,213.7 "/>
<polygon fill="#DCBC66" points="433.7,270.9 441.9,283.9 417.7,331.8 380.8,351.3 371,331.8 419.5,256.1 "/>
<polygon fill="#EECE8A" points="451.5,296.3 459.7,309.3 435.5,357.2 398.6,376.7 388.8,357.2 437.3,281.5 "/>
<polygon fill="#DCBC66" points="504.5,253.3 512.8,266.3 488.6,314.1 451.7,333.6 441.9,314.1 490.3,238.5 "/>
<polygon fill="#DCBC66" points="576.6,323.1 568.3,297.1 574.2,286.1 560.1,280.4 528.5,297.1 511.6,315.3 501,336.1 498.6,368 "/>
<path fill="#DCA06C" d="M494.5,277.6c-0.6,1.8-2.4,37.6-2.4,37.6h16l8.3-26.4L494.5,277.6z"/>
<path fill="#DCBC66" d="M449,338.5c1.8-1.8,45.5-60.9,45.5-60.9l-2.4,37.6h16l-19.5,36.8l-8.3-13.6l-26.6,3.3l-7.1,0.9L449,338.5z"
	/>
<polyline fill="#DCA06C" points="461.5,379.9 453.7,341.8 480.3,338.5 492.1,368 459,379.9 "/>
<path fill="#DCA06C" d="M388,359.2l14.3,13.6V385l-35.5,16.8l-12-19.2c0,0,9-5.6,12-13.3C366.8,369.2,387.9,366.3,388,359.2z"/>
<path fill="#DCBC66" d="M402.3,401.7c-0.6-0.6,0-29,0-29l44.3-30.1l7.1-0.9l7.1,34.9l28.1-7.5l-57.7,28.4L402.3,401.7z"/>
<path fill="#DCBC66" d="M313.5,439.1c-0.6-0.6,0-29,0-29l44.3-30.1l7.1-0.9L372,414l28.1-7.5L342.4,435L313.5,439.1z"/>
<polyline fill="#DCA06C" points="432,411.5 424.3,373.4 450.9,370.1 462.7,399.6 429.6,411.5 "/>
<path fill="#DCBC66" d="M372.9,433.3c-0.6-0.6,0-29,0-29l44.3-30.1l7.1-0.9l7.1,34.9l28.1-7.5l-57.7,28.4L372.9,433.3z"/>
<polyline fill="#DCA06C" points="239,400.5 246.8,362.4 220.2,359.2 208.4,388.7 241.4,400.5 "/>
<path fill="#DCBC66" d="M298.2,422.4c0.6-0.6,0-29,0-29l-44.3-30.1l-7.1-0.9l-7.1,34.9l-28.1-7.5l57.7,28.4L298.2,422.4z"/>
<polyline fill="#DCA06C" points="181,388.9 188.8,350.8 162.2,347.5 150.4,377.1 183.4,388.9 "/>
<path fill="#DCBC66" d="M240.2,410.7c0.6-0.6,0-29,0-29l-44.3-30.1l-7.1-0.9l-7.1,34.9l-28.1-7.5l57.7,28.4L240.2,410.7z"/>
<polyline fill="#DCA06C" points="226,402.2 233.8,364.1 207.2,360.8 195.4,390.3 228.5,402.2 "/>
<path fill="#DCBC66" d="M285.2,424c0.6-0.6,0-29,0-29l-44.3-30.1l-7.1-0.9l-7.1,34.9l-28.1-7.5l57.7,28.4L285.2,424z"/>
<polyline fill="#DCA06C" points="271.1,413.1 278.8,375 252.2,371.7 240.4,401.3 273.5,413.1 "/>
<path fill="#DCBC66" d="M330.2,435c0.6-0.6,0-29,0-29l-44.3-30.1l-7.1-0.9l-7.1,34.9l-28.1-7.5l57.7,28.4L330.2,435z"/>
<path fill="none" stroke="#231F20" stroke-linecap="round" stroke-linejoin="round" stroke-miterlimit="10" d="M411.5,235.8"/>
<path fill="#F18727" d="M289.4,160.6c0,0-62.1-32.3-60.8,8.1c0,0-30.5,16.1-14.1,31.7c0,0-26,18.5-8.9,34.4c0,0,12.5,29.5,43.3,12.2
	c0,0,39.2,11,44.3-17.9c0,0,42.3,5.2,47.1-6.8c0,0,56,9.2,24.7-27.1c0,0-22.6-22.6-49.5-13.9C315.4,181.4,322.3,164.7,289.4,160.6z"
	/>
<path fill="#EEE7A1" d="M375,242.3c0,0-35.5,4.8-29.5,16.9c0,0,16.5,31.6,29.5,23.6c0,0,34.3,8.9,36.6-13.7c0,0,18.9-21.4,7.1-26.7
	C418.7,242.3,402.7,232.9,375,242.3z"/>
<path fill="#EEE7A1" d="M369.4,334.8c0,0-35.5,4.8-29.5,16.9c0,0,16.5,31.6,29.5,23.6c0,0,34.3,8.9,36.6-13.7
	c0,0,18.9-21.4,7.1-26.7C413.1,334.8,397,325.5,369.4,334.8z"/>
<path fill="#231F20" d="M108.6,347.9c0,0,216.3,183.2,444.3-9.5c0,0-33.1,118.1-33.1,118.2c-10.7,38.2-57.5,61.3-91.4,74.3
	c-69.2,26.5-149.8,24.5-216-9.7c-12.8-6.6-25.2-14.3-36.7-23c-8.5-6.5-29.9-20.3-33-30.9C142.9,467.3,108.6,347.9,108.6,347.9z"/>
<polyline fill="#DCA06C" points="372.7,417.2 364.9,379.1 391.5,375.9 403.3,405.4 370.2,417.2 "/>
<path fill="#FFFFFF" d="M105.7,344.6h18.9c0,0,159.5,155.6,421,0s0,0,0,0s-86.2,74.7-190.7,81c-104.4,6.2,0,0,0,0
	S222.1,442.3,105.7,344.6z"/>
<path fill="#EECE8A" d="M224.9,353.3c5.9,0.2-103.4-29.1-103.4-29.1l-39.6,23.5l99.9,34.4l11.8-14.8l31.3,4.7
	C224.9,372.1,213.7,352.9,224.9,353.3z"/>
<path fill="#EB7825" d="M252.1,258.6c0,0-47.2,24.5-8.1,50.5c0,0-58,48.4-19.9,58.8l3.8,4.1c0,0-4.6,11.2,13.4,13.2
	c0,0,24.3,0.3,31.9-17.5c13.7-32.2,46.9-55.8,14.6-68.5c0,0,57.8-42.8,16.8-46.5c0,0-12.5-21.5-44.2,6.2L252.1,258.6"/>
<path fill="#EB7825" d="M386.1,225.2c0,0,13,62.6,53.1-15.4c0,0,46.1-32.1,0-42.5l-23.6-15.4l-16.5,5l-40.2-5l-5.6,30.7
	c0,0,1.7-12.6,14,3c1.4,1.8,2.9,3.9,4.6,6.5C371.9,192.1,402.7,185.1,386.1,225.2z"/>
<path fill="#DCA06C" d="M81.9,332.5c0,4.1,0,15.2,0,15.2l39.6-23.5L81.9,332.5z"/>
<path fill="#DCA06C" d="M19.2,275.8c0,4.1,0,15.2,0,15.2l39.6-23.5L19.2,275.8z"/>
<path fill="#EEE7A1" d="M256.5,242.3c0,0-35.5,4.8-29.5,16.9c0,0,16.5,31.6,29.5,23.6c0,0,34.3,8.9,36.6-13.7
	c0,0,18.9-21.4,7.1-26.7C300.2,242.3,284.1,232.9,256.5,242.3z"/>
</svg>
