<svg xmlns="http://www.w3.org/2000/svg" width="600" height="600" viewBox="0 0 600 600"><path fill="#EECE8A" d="M162.2 296.6c5.9.2-103.4-29.1-103.4-29.1l-39.6 23.5 99.9 34.4 11.8-14.8 31.3 4.7c0 .1-11.2-19.1 0-18.7z"/><ellipse fill="#EAB53D" stroke="#231F20" stroke-linecap="round" stroke-linejoin="round" stroke-miterlimit="10" cx="330.2" cy="302.4" rx="233.4" ry="117.8"/><path fill="#EECE8A" d="M262.6 89.6c-1.2 1.8-11.8 20.8-11.8 20.8l21.9 26.5 4.7 18.5 8.9 13.4s23-6.9 25.4 10.7 14.2-10.2 22.5-5.7 49 9.2 25.7 27.5l27.9-3.4-86.8-75.8-38.4-32.5z"/><path fill="#DCBC66" d="M89.2 163.2c0 2.8-3 23.5-3 23.5l56.7 63.6 3.5-6.9 53.8 56.1s13.6-5.9 24.2 0l7.7 4.1 6.5-5.9-105.7-108.1-29.5-35.5-14.2 9.1zM72 203c0 2.8-3 23.5-3 23.5l56.7 63.6 3.5-6.9 53.8 56.1s13.6-5.9 24.2 0l7.7 4.1 6.5-5.9-105.7-108.1-29.5-35.5-14.2 9.1zM192.9 142.8c-7.7-1.5-27.2-2.7-27.2-2.7l-11.8 11.8 9.5 21.9 10 3.5 8.3-14.7 50.8 42.5 4.7-8.9 31.9 5.1-12.4-9.2-53.7-56.2-6.5 6.9h-3.6zM170.1 172.8c-7.7-1.5-27.2-2.7-27.2-2.7l-11.8 11.8 9.5 21.9 10 3.5 8.3-14.7 50.8 42.5 4.7-8.9 31.9 5.1-12.3-9.3-53.8-56.1-6.5 6.9h-3.6z"/><path fill="#EECE8A" d="M150.9 189.1c-7.7-1.5-27.2-2.7-27.2-2.7l-11.8 11.8 9.5 21.9 10 3.5 8.3-14.7 50.8 42.5 4.7-8.9 31.9 5.1-12.4-9.2-53.7-56.2-6.5 6.9h-3.6zM94.4 270.5l-40.7-40.7v-13l-12.4-7.7v-13.4l4.7-8.4 50.8 42.5 11.8 22.4z"/><path fill="#DCBC66" d="M196.8 324.4c5.9.2-103.4-29.1-103.4-29.1l-39.6 23.5 99.9 34.4 11.8-14.8 31.3 4.7s-11.3-19.2 0-18.7z"/><path fill="#EB7825" d="M212.3 223.8s-50.5-16.5-41.7 29.6c0 0-75.2-7.4-55.9 27l-.2 5.6s-11.2 4.6 0 18.8c0 0 16.8 17.6 34.9 10.5 32.5-12.8 72.7-5.7 59.1-37.6 0 0 71 11.1 44.9-20.7 0 0 6.6-24-35.5-27.2l-5.6-6"/><path fill="#DCA06C" d="M165.8 329.1c-.4.2-1.2.6-2.2 1.3-6.5 4.2-23.4 16.6-22.2 17.5 1.3 1.1 17.9 12.2 17.9 12.2l24.2-21.6-19.3-9.4"/><path stroke="#231F20" stroke-linecap="round" stroke-linejoin="round" stroke-miterlimit="10" d="M30.6 397.6" fill="none"/><path fill="#EEE7A1" d="M205.8 277.4s-35.5 4.8-29.5 16.9c0 0 16.5 31.6 29.5 23.6 0 0 34.3 8.9 36.6-13.7 0 0 18.9-21.4 7.1-26.7 0-.1-16.1-9.4-43.7-.1z"/><path fill="#CFAB5C" d="M418.8 56.2l-16.5 41.4s-18.9 75.6-18.9 80.4c0 4.7 17.7 5 17.7 5l49.6-107.8v-19h-31.9z"/><path fill="#DCBC66" d="M389.7 86.6l18.9 13-18.9 80.4-30.1-28.4zM291.6 105.7l35.5 11.8 70.9 67.4-5.6 30.7-90.1-77.4z"/><path fill="#EB7825" d="M346.2 169.5c-3.6 1-52 10.6-56.7 24.8 0 0-29.5-4.7 0 26 0 0-8.3 35.5 44.3 20.1 0 0 53.8 21.3 55-22.5 0 0 18.9-39-11.8-39-.1.1-5.1-16.3-30.8-9.4z"/><path fill="#DCBC66" d="M434.2 178c0-3.5 33.1-79.2 33.1-79.2l-10.6-14.2-18.5 5-43 93.3h22.5l16.5-4.9zM512.6 96.5c-10.6 9.5-15.4 17.5-15.4 17.5l-23.6 3.3-56.7 58.4 23.6 15.4s54.4-34.3 57.9-39.6c3.5-5.3 14.2-29 14.2-29v-26zM475.5 154.8l-52.1 34.6s34.4 8 17.2 25.3l54.9-52.4-14.2-1.2-5.8-6.3z"/><path fill="#C6A255" d="M514.2 133.3l-46.1 55.6-54.8 52.4 43-9.9 48.5-41.2 42.5-36.2-7.1-20.7z"/><path fill="#EECE8A" d="M502.4 170.5l-46.1 55.6-54.9 52.4 43.1-9.9 48.4-41.2 42.6-36.2-7.1-20.7z"/><path fill="#C6A255" d="M514.2 191.6l-46.1 55.5-54.8 52.5 43-9.9 48.5-41.2 42.5-36.2-7.1-20.7z"/><path fill="#DCBC66" d="M574.2 138.8l-21.2-10.5-48.5 41.2v37.2zM570.7 183.1c-3 3-69.7 75-69.7 75l17.7 19.5 48.5-75.6 9.5 8.3-6-27.2z"/><path fill="#EB7825" d="M354.4 245.6s-49 3.7-43.7 25c5.3 21.3-3 0-3 0s-29.8 18.6-4.6 38.2c1.4 1.1 2.9 2.1 4.6 3.2 33.1 20.7-1.7-1.1-1.7-1.1s-31.2 40.4-3.5 56.9c.9.5 1.8 1 2.8 1.5 32.5 15.4 45.9 26 61.5 0 1.8-3 39.6 0 21.3-48.5 0 0 14.2-29.2-5.3-34.7 0 0 41.4-3.7 14.8-20.8-26.6-17.1-3.1-.6-3.1-.6s11.2-17-40.1-19.1z"/><path fill="#EECE8A" d="M566.6 228.5l8.2 13-24.2 47.9-36.9 19.5-9.8-19.5 48.5-75.7z"/><path fill="#DCBC66" d="M433.7 270.9l8.2 13-24.2 47.9-36.9 19.5-9.8-19.5 48.5-75.7z"/><path fill="#EECE8A" d="M451.5 296.3l8.2 13-24.2 47.9-36.9 19.5-9.8-19.5 48.5-75.7z"/><path fill="#DCBC66" d="M504.5 253.3l8.3 13-24.2 47.8-36.9 19.5-9.8-19.5 48.4-75.6zM576.6 323.1l-8.3-26 5.9-11-14.1-5.7-31.6 16.7-16.9 18.2-10.6 20.8-2.4 31.9z"/><path fill="#DCA06C" d="M494.5 277.6c-.6 1.8-2.4 37.6-2.4 37.6h16l8.3-26.4-21.9-11.2z"/><path fill="#DCBC66" d="M449 338.5c1.8-1.8 45.5-60.9 45.5-60.9l-2.4 37.6h16l-19.5 36.8-8.3-13.6-26.6 3.3-7.1.9 2.4-4.1z"/><path fill="#DCA06C" d="M461.5 379.9l-7.8-38.1 26.6-3.3 11.8 29.5-33.1 11.9"/><path fill="#DCA06C" d="M388 359.2l14.3 13.6v12.2l-35.5 16.8-12-19.2s9-5.6 12-13.3c0-.1 21.1-3 21.2-10.1z"/><path fill="#DCBC66" d="M402.3 401.7c-.6-.6 0-29 0-29l44.3-30.1 7.1-.9 7.1 34.9 28.1-7.5-57.7 28.4-28.9 4.2zM313.5 439.1c-.6-.6 0-29 0-29l44.3-30.1 7.1-.9 7.1 34.9 28.1-7.5-57.7 28.5-28.9 4.1z"/><path fill="#DCA06C" d="M432 411.5l-7.7-38.1 26.6-3.3 11.8 29.5-33.1 11.9"/><path fill="#DCBC66" d="M372.9 433.3c-.6-.6 0-29 0-29l44.3-30.1 7.1-.9 7.1 34.9 28.1-7.5-57.7 28.4-28.9 4.2z"/><path fill="#DCA06C" d="M239 400.5l7.8-38.1-26.6-3.2-11.8 29.5 33 11.8"/><path fill="#DCBC66" d="M298.2 422.4c.6-.6 0-29 0-29l-44.3-30.1-7.1-.9-7.1 34.9-28.1-7.5 57.7 28.4 28.9 4.2z"/><path fill="#DCA06C" d="M181 388.9l7.8-38.1-26.6-3.3-11.8 29.6 33 11.8"/><path fill="#DCBC66" d="M240.2 410.7c.6-.6 0-29 0-29l-44.3-30.1-7.1-.9-7.1 34.9-28.1-7.5 57.7 28.4 28.9 4.2z"/><path fill="#DCA06C" d="M226 402.2l7.8-38.1-26.6-3.3-11.8 29.5 33.1 11.9"/><path fill="#DCBC66" d="M285.2 424c.6-.6 0-29 0-29l-44.3-30.1-7.1-.9-7.1 34.9-28.1-7.5 57.7 28.4 28.9 4.2z"/><path fill="#DCA06C" d="M271.1 413.1l7.7-38.1-26.6-3.3-11.8 29.6 33.1 11.8"/><path fill="#DCBC66" d="M330.2 435c.6-.6 0-29 0-29l-44.3-30.1-7.1-.9-7.1 34.9-28.1-7.5 57.7 28.4 28.9 4.2z"/><path stroke="#231F20" stroke-linecap="round" stroke-linejoin="round" stroke-miterlimit="10" d="M411.5 235.8" fill="none"/><path fill="#F18727" d="M289.4 160.6s-62.1-32.3-60.8 8.1c0 0-30.5 16.1-14.1 31.7 0 0-26 18.5-8.9 34.4 0 0 12.5 29.5 43.3 12.2 0 0 39.2 11 44.3-17.9 0 0 42.3 5.2 47.1-6.8 0 0 56 9.2 24.7-27.1 0 0-22.6-22.6-49.5-13.9-.1.1 6.8-16.6-26.1-20.7z"/><path fill="#EEE7A1" d="M375 242.3s-35.5 4.8-29.5 16.9c0 0 16.5 31.6 29.5 23.6 0 0 34.3 8.9 36.6-13.7 0 0 18.9-21.4 7.1-26.7 0-.1-16-9.5-43.7-.1zM369.4 334.8s-35.5 4.8-29.5 16.9c0 0 16.5 31.6 29.5 23.6 0 0 34.3 8.9 36.6-13.7 0 0 18.9-21.4 7.1-26.7 0-.1-16.1-9.4-43.7-.1z"/><path fill="#231F20" d="M108.6 347.9s216.3 183.2 444.3-9.5c0 0-33.1 118.1-33.1 118.2-10.7 38.2-57.5 61.3-91.4 74.3-69.2 26.5-149.8 24.5-216-9.7-12.8-6.6-25.2-14.3-36.7-23-8.5-6.5-29.9-20.3-33-30.9.2 0-34.1-119.4-34.1-119.4z"/><path fill="#DCA06C" d="M372.7 417.2l-7.8-38.1 26.6-3.2 11.8 29.5-33.1 11.8"/><path fill="#fff" d="M105.7 344.6h18.9s159.5 155.6 421 0-86.2 74.7-190.7 81-132.8 16.7-249.2-81z"/><path fill="#EECE8A" d="M224.9 353.3c5.9.2-103.4-29.1-103.4-29.1l-39.6 23.5 99.9 34.4 11.8-14.8 31.3 4.7c0 .1-11.2-19.1 0-18.7z"/><path fill="#EB7825" d="M252.1 258.6s-47.2 24.5-8.1 50.5c0 0-58 48.4-19.9 58.8l3.8 4.1s-4.6 11.2 13.4 13.2c0 0 24.3.3 31.9-17.5 13.7-32.2 46.9-55.8 14.6-68.5 0 0 57.8-42.8 16.8-46.5 0 0-12.5-21.5-44.2 6.2l-8.3-.3"/><path fill="#EB7825" d="M386.1 225.2s13 62.6 53.1-15.4c0 0 46.1-32.1 0-42.5l-23.6-15.4-16.5 5-40.2-5-5.6 30.7s1.7-12.6 14 3c1.4 1.8 2.9 3.9 4.6 6.5 0 0 30.8-7 14.2 33.1z"/><path fill="#DCA06C" d="M81.9 332.5v15.2l39.6-23.5-39.6 8.3zM19.2 275.8v15.2l39.6-23.5-39.6 8.3z"/><path fill="#EEE7A1" d="M256.5 242.3s-35.5 4.8-29.5 16.9c0 0 16.5 31.6 29.5 23.6 0 0 34.3 8.9 36.6-13.7 0 0 18.9-21.4 7.1-26.7 0-.1-16.1-9.5-43.7-.1z"/></svg>