<svg xmlns="http://www.w3.org/2000/svg" width="600" height="600" viewBox="0 0 600 600"><path fill="#D62D2B" stroke="#010101" stroke-miterlimit="10" d="M577 133.8s0 246.6-246.6 263.3c-149 10.2-261-42.5-309.7-263.3"/><path fill="#ECB965" d="M538.1 411.9l-1.3 34.4-432.9-14.2z"/><path fill="#231F20" d="M523.2 412.6l-2.4 33.2 16 .5 1.3-34.4z"/><path fill="#ECB965" d="M547.7 504.1l-10.9 32.7-411.2-136.1z"/><path fill="#231F20" d="M533.3 500.6l-11.7 31.1 15.2 5.1 10.9-32.7z"/><path fill="#AE1F27" stroke="#010101" stroke-width="4" stroke-miterlimit="10" d="M577 133.8c0 58.6-124.5 106.1-278.2 106.1s-278.1-47.5-278.1-106.1 124.5-80.3 278.2-80.3 278.1 21.7 278.1 80.3z"/></svg>