<?xml version="1.0" encoding="utf-8"?>
<!-- Generator: Adobe Illustrator 18.1.1, SVG Export Plug-In . SVG Version: 6.00 Build 0)  -->
<!DOCTYPE svg PUBLIC "-//W3C//DTD SVG 1.1//EN" "http://www.w3.org/Graphics/SVG/1.1/DTD/svg11.dtd">
<svg version="1.1" id="Layer_1" xmlns="http://www.w3.org/2000/svg" xmlns:xlink="http://www.w3.org/1999/xlink" x="0px" y="0px"
	 width="600px" height="600px" viewBox="0 0 600 600" enable-background="new 0 0 600 600" xml:space="preserve">
<path fill="#D62D2B" stroke="#010101" stroke-miterlimit="10" d="M577,133.8c0,0,0,246.6-246.6,263.3
	C181.4,407.3,69.4,354.6,20.7,133.8"/>
<polygon fill="#ECB965" points="538.1,411.9 536.8,446.3 103.9,432.1 "/>
<polygon fill="#231F20" points="523.2,412.6 520.8,445.8 536.8,446.3 538.1,411.9 "/>
<polygon fill="#ECB965" points="547.7,504.1 536.8,536.8 125.6,400.7 "/>
<polygon fill="#231F20" points="533.3,500.6 521.6,531.7 536.8,536.8 547.7,504.1 "/>
<path fill="#AE1F27" stroke="#010101" stroke-width="4" stroke-miterlimit="10" d="M577,133.8c0,58.6-124.5,106.1-278.2,106.1
	S20.7,192.4,20.7,133.8s124.5-80.3,278.2-80.3S577,75.2,577,133.8z"/>
</svg>
