<svg xmlns="http://www.w3.org/2000/svg" width="600" height="600" viewBox="0 0 600 600"><ellipse fill="#F2DD86" cx="300" cy="277" rx="291.4" ry="113.4"/><path fill="#9A4822" d="M135.6 231.1s-90 32.9-62.6 64.5c0 0 37.7 8.4 58.4 27.7 15.9 14.8 69.3-25.6 62.9-51.3 0 0-20-59.5-58.7-40.9zM231.1 192s-90 32.9-62.6 64.5c0 0 37.7 8.4 58.4 27.7 15.9 14.8 69.3-25.6 62.9-51.3 0 0-20-59.5-58.7-40.9zM231.1 280.6s-90 32.9-62.6 64.5c0 0 37.7 8.4 58.4 27.7 15.9 14.8 69.3-25.6 62.9-51.3 0 0-20-59.5-58.7-40.9zM401.2 266.8s-90 32.9-62.6 64.5c0 0 37.7 8.4 58.4 27.7 15.9 14.8 69.3-25.6 62.9-51.3 0 0-20-59.5-58.7-40.9zM436.4 211.5s-90 32.9-62.6 64.5c0 0 37.7 8.4 58.4 27.7 15.9 14.8 69.3-25.6 62.9-51.3 0 0-20-59.6-58.7-40.9z"/><path fill="#84391C" d="M350.2 192s-90 32.9-62.6 64.5c0 0 37.7 8.4 58.4 27.7 15.9 14.8 69.3-25.6 62.9-51.3-.1 0-20.1-59.5-58.7-40.9z"/><path fill="#AE562D" d="M320.1 254.6s-90 32.9-62.6 64.5c0 0 37.7 8.4 58.4 27.7 15.9 14.8 69.3-25.6 62.9-51.3 0 0-20-59.5-58.7-40.9z"/></svg>