<?xml version="1.0" encoding="utf-8"?>
<!-- Generator: Adobe Illustrator 18.1.1, SVG Export Plug-In . SVG Version: 6.00 Build 0)  -->
<!DOCTYPE svg PUBLIC "-//W3C//DTD SVG 1.1//EN" "http://www.w3.org/Graphics/SVG/1.1/DTD/svg11.dtd">
<svg version="1.1" id="Layer_1" xmlns="http://www.w3.org/2000/svg" xmlns:xlink="http://www.w3.org/1999/xlink" x="0px" y="0px"
	 width="600px" height="600px" viewBox="0 0 600 600" enable-background="new 0 0 600 600" xml:space="preserve">
<g>
	<ellipse fill="#F2DD86" cx="300" cy="277" rx="291.4" ry="113.4"/>
	<path fill="#9A4822" d="M135.6,231.1c0,0-90,32.9-62.6,64.5c0,0,37.7,8.4,58.4,27.7c15.9,14.8,69.3-25.6,62.9-51.3
		C194.3,272,174.3,212.5,135.6,231.1z"/>
	<path fill="#9A4822" d="M231.1,192c0,0-90,32.9-62.6,64.5c0,0,37.7,8.4,58.4,27.7c15.9,14.8,69.3-25.6,62.9-51.3
		C289.8,232.9,269.8,173.4,231.1,192z"/>
	<path fill="#9A4822" d="M231.1,280.6c0,0-90,32.9-62.6,64.5c0,0,37.7,8.4,58.4,27.7c15.9,14.8,69.3-25.6,62.9-51.3
		C289.8,321.5,269.8,262,231.1,280.6z"/>
	<path fill="#9A4822" d="M401.2,266.8c0,0-90,32.9-62.6,64.5c0,0,37.7,8.4,58.4,27.7c15.9,14.8,69.3-25.6,62.9-51.3
		C459.9,307.7,439.9,248.2,401.2,266.8z"/>
	<path fill="#9A4822" d="M436.4,211.5c0,0-90,32.9-62.6,64.5c0,0,37.7,8.4,58.4,27.7c15.9,14.8,69.3-25.6,62.9-51.3
		C495.1,252.4,475.1,192.8,436.4,211.5z"/>
	<path fill="#84391C" d="M350.2,192c0,0-90,32.9-62.6,64.5c0,0,37.7,8.4,58.4,27.7c15.9,14.8,69.3-25.6,62.9-51.3
		C408.8,232.9,388.8,173.4,350.2,192z"/>
	<path fill="#AE562D" d="M320.1,254.6c0,0-90,32.9-62.6,64.5c0,0,37.7,8.4,58.4,27.7c15.9,14.8,69.3-25.6,62.9-51.3
		C378.8,295.5,358.8,236,320.1,254.6z"/>
</g>
</svg>
