<?xml version="1.0" encoding="utf-8"?>
<!-- Generator: Adobe Illustrator 18.1.1, SVG Export Plug-In . SVG Version: 6.00 Build 0)  -->
<!DOCTYPE svg PUBLIC "-//W3C//DTD SVG 1.1//EN" "http://www.w3.org/Graphics/SVG/1.1/DTD/svg11.dtd">
<svg version="1.1" id="Layer_1" xmlns="http://www.w3.org/2000/svg" xmlns:xlink="http://www.w3.org/1999/xlink" x="0px" y="0px"
	 width="600px" height="600px" viewBox="0 0 600 600" enable-background="new 0 0 600 600" xml:space="preserve">
<polygon fill="#F2DD86" points="10.2,226.3 200.2,57.4 589.8,302.6 439.6,521.1 "/>
<g>
	<path fill="#CC8E5A" d="M99.2,204c0,0,39.8,39.7,48.9,28.5l93.4-100.6c0,0-55.4-38.2-43.1-37.3l-98,107.5"/>
	<path fill="#B37648" d="M114.8,186.2c1.9-0.3,49.3,3.7,69.8,10.4c0,0,17.3-22.6,0.3-49.5c0,0-5.1-32.2-0.6-37.2L114.8,186.2z"/>
	<path fill="#B37648" d="M101.2,205.9c0,0,19,45.4,25.9,40.4c0,0,5.2-3.4,5.9-5.7l8.2-6.4L101.2,205.9z"/>
	<path fill="#B37648" d="M241.4,131.9c0.1,0.1,1.6-11.3-43.1-37.3l-2.4,3.2C195.9,97.8,213.9,114.2,241.4,131.9z"/>
</g>
<g>
	<path fill="#CC8E5A" d="M140.6,252.1c0,0,41.6,43,51.8,30.2l104.3-115.6c0,0-58.6-40.8-45.3-40.3L142,249.8"/>
	<path fill="#B37648" d="M158.1,231.7c2.1-0.4,53.2,2.5,75.1,9.3c0,0,19.4-25.8,2-55.3c0,0-4.5-35.8,0.6-41.5L158.1,231.7z"/>
	<path fill="#B37648" d="M142.7,254.1c0,0,19,50.1,26.6,44.3c0,0,5.7-4,6.5-6.6l9.1-7.4L142.7,254.1z"/>
	<path fill="#B37648" d="M296.7,166.7c0.2,0.1,2.2-12.6-45.3-40.3l-2.8,3.7C248.7,130.1,267.5,147.8,296.7,166.7z"/>
</g>
<g>
	<path fill="#CC8E5A" d="M200.4,291.3c0,0,37.6,39.9,47.3,27.6l98.5-111.3c0,0-53.3-37.5-41-37.3L201.7,289.1"/>
	<path fill="#B37648" d="M216.9,271.6c2-0.4,49.1,1.4,69.2,7.4c0,0,18.4-24.8,2.9-52.4c0,0-3.4-33.8,1.3-39.3L216.9,271.6z"/>
	<path fill="#B37648" d="M202.3,293.2c0,0,16.6,47,23.8,41.4c0,0,5.4-3.9,6.2-6.3l8.5-7.2L202.3,293.2z"/>
	<path fill="#B37648" d="M346.2,207.6c0.1,0.1,2.2-12-41-37.3l-2.6,3.6C302.6,173.9,319.6,190.3,346.2,207.6z"/>
</g>
<g>
	<path fill="#CC8E5A" d="M257.5,323.4c0,0,32.8,35.1,41.4,24.2l87.3-99.2c0,0-46.6-32.9-35.8-32.7l-91.7,105.9"/>
	<path fill="#B37648" d="M272.1,305.9c1.7-0.3,43.1,0.9,60.8,6.1c0,0,16.3-22.1,2.9-46.4c0,0-2.8-29.9,1.4-34.8L272.1,305.9z"/>
	<path fill="#B37648" d="M259.1,325.1c0,0,14.3,41.6,20.6,36.5c0,0,4.8-3.5,5.5-5.7l7.5-6.4L259.1,325.1z"/>
	<path fill="#B37648" d="M386.2,248.3c0.1,0.1,2-10.6-35.8-32.7l-2.3,3.2C348,218.7,362.9,233.2,386.2,248.3z"/>
</g>
<g>
	<path fill="#CC8E5A" d="M303.2,355.8c0,0,32.8,35.1,41.4,24.2l87.3-99.2c0,0-46.6-32.9-35.8-32.7l-91.7,105.9"/>
	<path fill="#B37648" d="M317.8,338.3c1.7-0.3,43.1,0.9,60.8,6.1c0,0,16.3-22.1,2.9-46.4c0,0-2.8-29.9,1.4-34.8L317.8,338.3z"/>
	<path fill="#B37648" d="M304.9,357.5c0,0,14.3,41.6,20.6,36.5c0,0,4.8-3.5,5.5-5.7l7.5-6.4L304.9,357.5z"/>
	<path fill="#B37648" d="M431.9,280.8c0.1,0.1,2-10.6-35.8-32.7l-2.3,3.2C393.7,251.2,408.6,265.6,431.9,280.8z"/>
</g>
<path fill="#C24A29" d="M448.1,354.9c0,0,30.7,7.2,56.5,0l4.9-43.1c0,0-22.7,31.7-74.3-1.3L448.1,354.9z"/>
<path fill="#AA3924" d="M513.7,300.3c0,14.4-18.3,26.1-40.9,26.1c-16.9,0-31.5-6.6-37.7-16c-2.1-3.1-3.2-6.6-3.2-10.2
	c0-14.4,18.3-15.9,40.9-15.9S513.7,285.8,513.7,300.3z"/>
</svg>
