<svg xmlns="http://www.w3.org/2000/svg" width="600" height="600" viewBox="0 0 600 600"><path fill="#F2DD86" d="M10.2 226.3l190-168.9 389.6 245.2-150.2 218.5z"/><path fill="#CC8E5A" d="M99.2 204s39.8 39.7 48.9 28.5l93.4-100.6s-55.4-38.2-43.1-37.3l-98 107.5"/><path fill="#B37648" d="M114.8 186.2c1.9-.3 49.3 3.7 69.8 10.4 0 0 17.3-22.6.3-49.5 0 0-5.1-32.2-.6-37.2l-69.5 76.3zM101.2 205.9s19 45.4 25.9 40.4c0 0 5.2-3.4 5.9-5.7l8.2-6.4-40-28.3zM241.4 131.9c.1.1 1.6-11.3-43.1-37.3l-2.4 3.2s18 16.4 45.5 34.1z"/><path fill="#CC8E5A" d="M140.6 252.1s41.6 43 51.8 30.2l104.3-115.6s-58.6-40.8-45.3-40.3l-109.4 123.4"/><path fill="#B37648" d="M158.1 231.7c2.1-.4 53.2 2.5 75.1 9.3 0 0 19.4-25.8 2-55.3 0 0-4.5-35.8.6-41.5l-77.7 87.5zM142.7 254.1s19 50.1 26.6 44.3c0 0 5.7-4 6.5-6.6l9.1-7.4-42.2-30.3zM296.7 166.7c.2.1 2.2-12.6-45.3-40.3l-2.8 3.7c.1 0 18.9 17.7 48.1 36.6z"/><path fill="#CC8E5A" d="M200.4 291.3s37.6 39.9 47.3 27.6l98.5-111.3s-53.3-37.5-41-37.3l-103.5 118.8"/><path fill="#B37648" d="M216.9 271.6c2-.4 49.1 1.4 69.2 7.4 0 0 18.4-24.8 2.9-52.4 0 0-3.4-33.8 1.3-39.3l-73.4 84.3zM202.3 293.2s16.6 47 23.8 41.4c0 0 5.4-3.9 6.2-6.3l8.5-7.2-38.5-27.9zM346.2 207.6c.1.1 2.2-12-41-37.3l-2.6 3.6s17 16.4 43.6 33.7z"/><path fill="#CC8E5A" d="M257.5 323.4s32.8 35.1 41.4 24.2l87.3-99.2s-46.6-32.9-35.8-32.7l-91.7 105.9"/><path fill="#B37648" d="M272.1 305.9c1.7-.3 43.1.9 60.8 6.1 0 0 16.3-22.1 2.9-46.4 0 0-2.8-29.9 1.4-34.8l-65.1 75.1zM259.1 325.1s14.3 41.6 20.6 36.5c0 0 4.8-3.5 5.5-5.7l7.5-6.4-33.6-24.4zM386.2 248.3c.1.1 2-10.6-35.8-32.7l-2.3 3.2c-.1-.1 14.8 14.4 38.1 29.5z"/><path fill="#CC8E5A" d="M303.2 355.8s32.8 35.1 41.4 24.2l87.3-99.2s-46.6-32.9-35.8-32.7l-91.7 105.9"/><path fill="#B37648" d="M317.8 338.3c1.7-.3 43.1.9 60.8 6.1 0 0 16.3-22.1 2.9-46.4 0 0-2.8-29.9 1.4-34.8l-65.1 75.1zM304.9 357.5s14.3 41.6 20.6 36.5c0 0 4.8-3.5 5.5-5.7l7.5-6.4-33.6-24.4zM431.9 280.8c.1.1 2-10.6-35.8-32.7l-2.3 3.2c-.1-.1 14.8 14.3 38.1 29.5z"/><path fill="#C24A29" d="M448.1 354.9s30.7 7.2 56.5 0l4.9-43.1s-22.7 31.7-74.3-1.3l12.9 44.4z"/><path fill="#AA3924" d="M513.7 300.3c0 14.4-18.3 26.1-40.9 26.1-16.9 0-31.5-6.6-37.7-16-2.1-3.1-3.2-6.6-3.2-10.2 0-14.4 18.3-15.9 40.9-15.9s40.9 1.5 40.9 16z"/></svg>